<svg width="1000" height="1000" viewBox="0 0 1000 1000" fill="none" xmlns="http://www.w3.org/2000/svg">
<path d="M513.023 291.685C513.023 338.743 475.865 376.87 430.055 376.87C384.246 376.87 347.088 338.743 347.088 291.685C347.088 244.626 384.246 206.5 430.055 206.5C475.865 206.5 513.023 244.626 513.023 291.685Z" fill="#EAB2A0" stroke="black"/>
<path d="M593.999 515.783C593.999 567.918 551.005 610.196 497.951 610.196C444.896 610.196 401.902 567.918 401.902 515.783C401.902 463.649 444.896 421.371 497.951 421.371C551.005 421.371 593.999 463.649 593.999 515.783Z" fill="white" stroke="black"/>
<path d="M709.857 347.051C709.857 394.109 672.699 432.235 626.889 432.235C581.08 432.235 543.922 394.109 543.922 347.051C543.922 299.992 581.08 261.866 626.889 261.866C672.699 261.866 709.857 299.992 709.857 347.051Z" fill="#D9D9D9" stroke="black"/>
<path d="M431.116 235.629C430.53 235.043 429.58 235.043 428.995 235.629L419.449 245.175C418.863 245.76 418.863 246.71 419.449 247.296C420.034 247.882 420.984 247.882 421.57 247.296L430.055 238.811L438.54 247.296C439.126 247.882 440.076 247.882 440.662 247.296C441.248 246.71 441.248 245.76 440.662 245.175L431.116 235.629ZM431.555 358.545L431.555 236.689H428.555L428.555 358.545H431.555Z" fill="black"/>
<path d="M498.574 445.012L513.758 495.345L513.865 495.701H514.237H563.473L523.609 526.895L523.34 527.106L523.438 527.433L538.646 577.843L498.882 546.727L498.574 546.486L498.266 546.727L458.502 577.843L473.709 527.433L473.808 527.106L473.539 526.895L433.675 495.701H482.911H483.282L483.39 495.345L498.574 445.012Z" fill="#5C8984" stroke="#5C8984"/>
<path d="M681.204 348.368C681.204 377.93 656.62 401.916 626.266 401.916C595.913 401.916 571.329 377.93 571.329 348.368C571.329 318.807 595.913 294.821 626.266 294.821C656.62 294.821 681.204 318.807 681.204 348.368Z" fill="#F5E9CF" stroke="black"/>
<ellipse cx="626.889" cy="349.028" rx="21.1783" ry="24.3872" fill="#5C8984"/>
<g filter="url(#filter0_d_235_384)">
<ellipse cx="233.845" cy="348.369" rx="82.8446" ry="87.003" fill="white"/>
<path d="M316.189 348.369C316.189 396.166 279.299 434.872 233.845 434.872C188.39 434.872 151.5 396.166 151.5 348.369C151.5 300.571 188.39 261.866 233.845 261.866C279.299 261.866 316.189 300.571 316.189 348.369Z" stroke="black"/>
</g>
<line x1="180.899" y1="322.14" x2="288.036" y2="322.14" stroke="#888888" stroke-width="5"/>
<line x1="180.899" y1="347.187" x2="288.036" y2="347.187" stroke="#888888" stroke-width="5"/>
<line x1="180.899" y1="373.551" x2="288.036" y2="373.551" stroke="#888888" stroke-width="5"/>
<g filter="url(#filter1_d_235_384)">
<rect x="217" y="485.6" width="151" height="277.4" rx="10" fill="#D9D9D9"/>
<rect x="218.5" y="487.1" width="148" height="274.4" rx="8.5" stroke="black" stroke-width="3"/>
</g>
<rect x="236.44" y="502.3" width="112.119" height="28.6667" rx="8.5" fill="#D9D9D9" stroke="black" stroke-width="3"/>
<rect x="236.44" y="545.367" width="112.119" height="28.6667" rx="8.5" fill="#5C8984" stroke="black" stroke-width="3"/>
<rect x="236.44" y="588.433" width="112.119" height="28.6667" rx="8.5" fill="#5C8984" stroke="black" stroke-width="3"/>
<rect x="237.936" y="631.5" width="112.119" height="28.6667" rx="8.5" fill="#5C8984" stroke="black" stroke-width="3"/>
<rect x="237.936" y="674.567" width="112.119" height="28.6667" rx="8.5" fill="#5C8984" stroke="black" stroke-width="3"/>
<rect x="237.936" y="717.633" width="112.119" height="28.6667" rx="8.5" fill="#5C8984" stroke="black" stroke-width="3"/>
<rect x="263.347" y="459" width="59.802" height="26.6" rx="5" fill="#374259"/>
<path d="M782.936 466.475L848.649 510.322L782.936 554.168V466.475Z" fill="#888888" stroke="black"/>
<path d="M713.617 466.475L779.329 510.322L713.617 554.168V466.475Z" fill="#888888" stroke="black"/>
<path d="M644.298 466.475L710.011 510.322L644.298 554.168V466.475Z" fill="#888888" stroke="black"/>
<rect x="407.979" y="656.305" width="439.783" height="138.195" rx="49.5" fill="#D9D9D9" stroke="black"/>
<rect x="407.979" y="656.305" width="439.783" height="138.195" rx="49.5" fill="#D9D9D9" stroke="black"/>
<line x1="547.963" y1="731.924" x2="831.508" y2="731.924" stroke="#888888" stroke-width="5"/>
<g filter="url(#filter2_d_235_384)">
<circle cx="485.454" cy="724.758" r="40.5985" fill="#EAB2A0"/>
<circle cx="485.454" cy="724.758" r="40.0985" stroke="#888888"/>
</g>
<defs>
<filter id="filter0_d_235_384" x="147" y="261.366" width="173.689" height="182.006" filterUnits="userSpaceOnUse" color-interpolation-filters="sRGB">
<feFlood flood-opacity="0" result="BackgroundImageFix"/>
<feColorMatrix in="SourceAlpha" type="matrix" values="0 0 0 0 0 0 0 0 0 0 0 0 0 0 0 0 0 0 127 0" result="hardAlpha"/>
<feOffset dy="4"/>
<feGaussianBlur stdDeviation="2"/>
<feComposite in2="hardAlpha" operator="out"/>
<feColorMatrix type="matrix" values="0 0 0 0 0 0 0 0 0 0 0 0 0 0 0 0 0 0 0.25 0"/>
<feBlend mode="normal" in2="BackgroundImageFix" result="effect1_dropShadow_235_384"/>
<feBlend mode="normal" in="SourceGraphic" in2="effect1_dropShadow_235_384" result="shape"/>
</filter>
<filter id="filter1_d_235_384" x="213" y="485.6" width="159" height="285.4" filterUnits="userSpaceOnUse" color-interpolation-filters="sRGB">
<feFlood flood-opacity="0" result="BackgroundImageFix"/>
<feColorMatrix in="SourceAlpha" type="matrix" values="0 0 0 0 0 0 0 0 0 0 0 0 0 0 0 0 0 0 127 0" result="hardAlpha"/>
<feOffset dy="4"/>
<feGaussianBlur stdDeviation="2"/>
<feComposite in2="hardAlpha" operator="out"/>
<feColorMatrix type="matrix" values="0 0 0 0 0 0 0 0 0 0 0 0 0 0 0 0 0 0 0.25 0"/>
<feBlend mode="normal" in2="BackgroundImageFix" result="effect1_dropShadow_235_384"/>
<feBlend mode="normal" in="SourceGraphic" in2="effect1_dropShadow_235_384" result="shape"/>
</filter>
<filter id="filter2_d_235_384" x="440.855" y="684.16" width="89.197" height="89.197" filterUnits="userSpaceOnUse" color-interpolation-filters="sRGB">
<feFlood flood-opacity="0" result="BackgroundImageFix"/>
<feColorMatrix in="SourceAlpha" type="matrix" values="0 0 0 0 0 0 0 0 0 0 0 0 0 0 0 0 0 0 127 0" result="hardAlpha"/>
<feOffset dy="4"/>
<feGaussianBlur stdDeviation="2"/>
<feComposite in2="hardAlpha" operator="out"/>
<feColorMatrix type="matrix" values="0 0 0 0 0 0 0 0 0 0 0 0 0 0 0 0 0 0 0.25 0"/>
<feBlend mode="normal" in2="BackgroundImageFix" result="effect1_dropShadow_235_384"/>
<feBlend mode="normal" in="SourceGraphic" in2="effect1_dropShadow_235_384" result="shape"/>
</filter>
</defs>
</svg>
